<svg xmlns="http://www.w3.org/2000/svg" xmlns:xlink="http://www.w3.org/1999/xlink"  x="0px" y="0px" viewBox="0 0 355.1 314" style="enable-background:new 0 0 355.1 314;" xml:space="preserve"><style type="text/css">	.st0{fill:#004E9C;}	.st1{fill:none;}	.st2{fill:#FFFFFF;}	.st3{fill:#005DAA;}	.st4{fill:#D8002B;}	.st5{enable-background:new    ;}</style><g id="Groupe_1167" transform="translate(-960 -541.92)">	<path id="Rectangle_200" class="st0" d="M975,541.9h325.1c8.3,0,15,6.7,15,15v284c0,8.3-6.7,15-15,15H975c-8.3,0-15-6.7-15-15v-284  C960,548.6,966.7,541.9,975,541.9z"></path></g><g>	<path class="st1" d="M45.6,220.6c0,0.1,0,0.1-0.1,0.2C45.5,220.8,45.6,220.7,45.6,220.6z"></path>	<path class="st1" d="M69.9,282.7c0.1-0.5,0.2-1.1,0.4-1.6C70.1,281.6,70,282.1,69.9,282.7z"></path>	<path class="st1" d="M46.3,219.4C46.3,219.4,46.3,219.3,46.3,219.4C46.3,219.3,46.3,219.4,46.3,219.4z"></path>	<path class="st1" d="M58.9,228.6L58.9,228.6c-0.3,0-0.6,0.1-0.9,0.1H47.9c-0.9-0.1-1.6-0.7-2.1-1.4c0.4,0.7,1.2,1.2,2.1,1.4  L0,228.5l0,0l47.9,0.1c0.1,0,0.3,0,0.4,0h9.4c0.1,0,0.2,0,0.3,0h0.3H58C58.3,228.7,58.6,228.7,58.9,228.6z M57.7,228.7h-9.4  c-0.1,0-0.3,0-0.4,0H58C57.9,228.7,57.8,228.7,57.7,228.7z"></path>	<path class="st1" d="M86.3,269.3c9.3,0,16.8,7.5,16.8,16.8C103.1,276.8,95.6,269.3,86.3,269.3c-7.5,0-13.9,5-16,11.8  C72.4,274.2,78.8,269.3,86.3,269.3z"></path>	<path class="st1" d="M46.8,219L46.8,219L46.8,219z"></path>	<path class="st1" d="M46,219.7C46,219.8,46,219.8,46,219.7C46,219.8,46,219.8,46,219.7z"></path>	<path class="st1" d="M47.3,218.7C47.3,218.7,47.2,218.7,47.3,218.7C47.2,218.7,47.3,218.7,47.3,218.7z"></path>	<path class="st1" d="M47.9,218.6L47.9,218.6C47.8,218.6,47.8,218.6,47.9,218.6z"></path>	<path class="st1" d="M60.7,228.1c-0.2,0.1-0.5,0.2-0.8,0.3C60.2,228.4,60.4,228.3,60.7,228.1z"></path>	<path class="st1" d="M45.8,220.2c0,0,0,0.1-0.1,0.1C45.7,220.3,45.7,220.2,45.8,220.2z"></path>	<path class="st1" d="M48.3,218.5c0.1,0,0.2,0,0.3,0C48.6,218.5,48.5,218.5,48.3,218.5L48.3,218.5z"></path>	<path class="st1" d="M60.6,223.1c-0.6-0.6-1.4-1.2-2.2-1.6l0,0C59.3,221.9,60,222.5,60.6,223.1z"></path>	<path class="st1" d="M59.7,228.2c0.9-0.5,2.1-1.5,2.2-2.7l0,0C61.9,226.7,60.6,227.7,59.7,228.2z"></path>	<path class="st1" d="M69.6,287.7c0-0.2,0-0.4,0-0.6C69.6,287.4,69.6,287.6,69.6,287.7z"></path>	<path class="st1" d="M69.9,289.4c0-0.1,0-0.1,0-0.2C69.8,289.3,69.8,289.3,69.9,289.4z"></path>	<path class="st1" d="M70.3,291L70.3,291L70.3,291z"></path>	<path class="st1" d="M69.5,286L69.5,286c0-0.4,0-0.8,0.1-1.1C69.6,285.3,69.5,285.6,69.5,286z"></path>	<path class="st1" d="M69.6,284.3c0-0.5,0.1-1,0.2-1.4C69.7,283.3,69.7,283.8,69.6,284.3z"></path>	<path class="st1" d="M45.9,227.3c-0.3-0.4-0.4-0.9-0.4-1.5v-4.4c0-0.2,0-0.3,0-0.5l0,0c0-0.1,0-0.1,0.1-0.2c0-0.1,0.1-0.2,0.1-0.3  c0,0,0-0.1,0.1-0.1c0.1-0.1,0.1-0.3,0.2-0.4c0,0,0,0,0-0.1c0.1-0.1,0.2-0.3,0.3-0.4l0,0c0.1-0.1,0.2-0.2,0.4-0.3c0,0,0,0,0.1,0  c0.1-0.1,0.3-0.2,0.4-0.2h0.1c0.1-0.1,0.3-0.1,0.4-0.1h0.1c0.2,0,0.3,0,0.5,0l0,0c0.1,0,0.2,0,0.3,0s0.1,0,0.2,0l9.6,3l0,0  c-4.3-3.7-8.9-7-13.8-9.9c-12.3-8-29.3-14.4-44-16.2c-0.2,0-0.5,0-0.7,0v33.1l47.9,0.1C47,228.6,46.3,228,45.9,227.3z"></path>	<path class="st1" d="M61.3,224c0.3,0.5,0.5,1,0.6,1.6C62,224.9,61.7,224.4,61.3,224z"></path>	<path class="st1" d="M58.9,228.6c-0.3,0-0.6,0.1-0.9,0.1h0.3h0.5C58.8,228.7,58.9,228.7,58.9,228.6z"></path>	<path class="st1" d="M86.3,269.3c-7.5,0-13.9,5-16,11.8l0,0c-0.2,0.5-0.3,1-0.4,1.6c0,0.1,0,0.1,0,0.2c-0.1,0.5-0.2,1-0.2,1.4  c0,0.2,0,0.4,0,0.6c0,0.4-0.1,0.8-0.1,1.1s0,0.8,0.1,1.1c0,0.2,0,0.4,0,0.6c0,0.5,0.1,1,0.2,1.4c0,0.1,0,0.1,0,0.2  c0.1,0.5,0.2,1.1,0.4,1.6l0,0c2.1,6.8,8.5,11.8,16,11.8l0,0c9.3,0,16.8-7.5,16.8-16.8l0,0C103.1,276.8,95.6,269.3,86.3,269.3z"></path>	<path class="st2" d="M86.3,257.3c-15.9,0-28.8,12.9-28.8,28.8s12.9,28.8,28.8,28.8s28.8-12.9,28.8-28.8l0,0  C115,270.2,102.2,257.3,86.3,257.3z M103.1,286L103.1,286c0,9.3-7.5,16.8-16.8,16.8c-7.5,0-13.9-5-16-11.8l0,0  c-0.2-0.5-0.3-1-0.4-1.6c0-0.1,0-0.1,0-0.2c-0.1-0.5-0.2-1-0.2-1.4c0-0.2,0-0.4,0-0.6c0-0.4-0.1-0.8-0.1-1.1l0,0l0,0  c0-0.4,0-0.8,0.1-1.1c0-0.2,0-0.4,0-0.6c0-0.5,0.1-1,0.2-1.4c0-0.1,0-0.1,0-0.2c0.1-0.5,0.2-1.1,0.4-1.6l0,0  c2.1-6.8,8.5-11.8,16-11.8C95.6,269.3,103.1,276.8,103.1,286L103.1,286L103.1,286z"></path>	<path class="st2" d="M70.3,281.1L70.3,281.1L70.3,281.1z"></path>	<path class="st2" d="M69.5,286c0,0.4,0,0.8,0.1,1.1C69.6,286.8,69.5,286.4,69.5,286L69.5,286z"></path>	<path class="st2" d="M103.1,286L103.1,286L103.1,286z"></path>	<path class="st2" d="M86.3,302.8L86.3,302.8c-7.5,0-13.9-5-16-11.8C72.4,297.8,78.8,302.8,86.3,302.8c9.3,0,16.8-7.5,16.8-16.8l0,0  C103.1,295.3,95.6,302.8,86.3,302.8z"></path>	<path class="st2" d="M69.6,284.9c0-0.2,0-0.4,0-0.6C69.6,284.5,69.6,284.7,69.6,284.9z"></path>	<path class="st2" d="M70.3,291c-0.2-0.5-0.3-1-0.4-1.6C70,289.9,70.1,290.5,70.3,291z"></path>	<path class="st2" d="M69.8,289.2c-0.1-0.5-0.2-1-0.2-1.4C69.7,288.2,69.7,288.7,69.8,289.2z"></path>	<path class="st2" d="M69.8,282.9c0-0.1,0-0.1,0-0.2C69.8,282.7,69.8,282.8,69.8,282.9z"></path>	<path class="st2" d="M58.4,221.5L58.4,221.5l-9.6-3c-0.1,0-0.1,0-0.2,0c-0.1,0-0.2,0-0.3,0c-0.2,0-0.3,0-0.5,0h-0.1  c-0.2,0-0.3,0.1-0.4,0.1h-0.1c-0.1,0.1-0.3,0.1-0.4,0.2c0,0,0,0-0.1,0c-0.1,0.1-0.3,0.2-0.4,0.3l0,0c-0.1,0.1-0.2,0.2-0.3,0.4  c0,0,0,0,0,0.1c-0.1,0.1-0.1,0.2-0.2,0.4c0,0,0,0.1-0.1,0.1c0,0.1-0.1,0.2-0.1,0.3s0,0.1-0.1,0.2c0,0.2-0.1,0.4-0.1,0.6v4.4  c0,0.5,0.1,1,0.4,1.5c0.4,0.7,1.2,1.2,2.1,1.4H58c0.3,0,0.6,0,0.9-0.1l0,0l0,0c0.2-0.1,0.5-0.2,0.8-0.4c0.9-0.5,2.1-1.5,2.2-2.7  l0,0l0,0c-0.1-0.6-0.3-1.1-0.6-1.6l0,0c-0.2-0.2-0.4-0.5-0.7-0.7C60,222.8,59.2,222.2,58.4,221.5C58.5,221.5,58.5,221.5,58.4,221.5  C58.5,221.5,58.5,221.5,58.4,221.5C58.5,221.5,58.5,221.5,58.4,221.5L58.4,221.5z"></path>	<path class="st2" d="M47.2,218.7c-0.1,0.1-0.3,0.1-0.4,0.2C46.9,218.9,47.1,218.8,47.2,218.7z"></path>	<path class="st2" d="M45.5,221.4v4.4c0,0.5,0.1,1,0.4,1.5c-0.3-0.4-0.4-0.9-0.4-1.5V221.4c0-0.2,0-0.4,0.1-0.6l0,0  C45.5,221.1,45.5,221.2,45.5,221.4z"></path>	<path class="st2" d="M46.7,219c-0.1,0.1-0.3,0.2-0.4,0.3C46.5,219.2,46.6,219.1,46.7,219z"></path>	<path class="st2" d="M46,219.8c-0.1,0.1-0.1,0.2-0.2,0.4C45.8,220,45.9,219.9,46,219.8z"></path>	<path class="st2" d="M45.7,220.3c0,0.1-0.1,0.2-0.1,0.3C45.6,220.5,45.6,220.4,45.7,220.3z"></path>	<path class="st2" d="M47.8,218.6c-0.2,0-0.3,0.1-0.4,0.1C47.5,218.7,47.6,218.6,47.8,218.6z"></path>	<path class="st2" d="M48.9,218.6c-0.1,0-0.1,0-0.2,0C48.7,218.5,48.8,218.5,48.9,218.6l9.6,3l0,0l0,0l0,0L48.9,218.6z"></path>	<path class="st2" d="M47.9,218.6c0.2,0,0.3,0,0.5,0C48.2,218.5,48,218.5,47.9,218.6z"></path>	<path class="st2" d="M46,219.7c0.1-0.1,0.2-0.3,0.3-0.4C46.2,219.5,46.1,219.6,46,219.7z"></path>	<path class="st2" d="M61.3,224L61.3,224c0.3,0.5,0.5,1,0.6,1.6l0,0C61.9,225,61.7,224.4,61.3,224z"></path>	<path class="st2" d="M58.9,228.6L58.9,228.6L58.9,228.6z"></path>	<path class="st2" d="M151.8,274.9h-1.3c1-6.4,0.8-12.9-0.6-19.2c-6.6,0.3-14.5,1-17.3-1.5c-8.5-9.2-2.7-11.6-2.7-11.6  s5.5-2,14.5-0.5c-2.4-2.6-11.3-11.4-25.4-12.2c-46.9-2.6-49.5-5.6-49.5-5.6S53.2,197.2,0,189.9v5.5c0.2,0,0.5,0,0.7,0  c14.6,1.8,31.7,8.2,44,16.2c4.9,2.9,9.5,6.2,13.8,9.9l0,0l0,0c0.8,0.4,1.5,1,2.2,1.6c0.2,0.2,0.5,0.5,0.7,0.8l0,0l0,0  c0.4,0.4,0.6,1,0.6,1.6l0,0l0,0l0,0l0,0l0,0l0,0l0,0c0,0.1,0,0.1,0,0.2c0,1.2-0.5,2-1.3,2.4c-0.2,0.1-0.5,0.2-0.8,0.3  s-0.6,0.2-0.9,0.2l0,0c-0.1,0-0.2,0.1-0.2,0.1h-0.5H58c-0.1,0-0.2,0-0.3,0h-9.4c-0.1,0-0.3,0-0.4,0L0,228.5v57h52.8  c0.2-18.3,15.2-34,33.5-33.1c33.6,1.6,32.7,31.8,33.3,33.6l32.2,0.3c2.2,0,4-1.8,4-4l0,0v-3.5C155.7,276.7,154,274.9,151.8,274.9z"></path>	<path class="st2" d="M0.7,195.4c14.6,1.8,31.7,8.2,44,16.2c4.9,2.9,9.5,6.2,13.8,9.9l0,0c-4.3-3.7-8.9-7-13.8-9.9  C32.4,203.6,15.3,197.2,0.7,195.4c-0.2,0-0.5,0-0.7,0l0,0C0.2,195.4,0.5,195.4,0.7,195.4z"></path>	<path class="st2" d="M62,225.5L62,225.5c0-0.6-0.2-1.1-0.6-1.6l0,0C61.7,224.4,62,224.9,62,225.5z"></path>	<path class="st2" d="M62,225.5L62,225.5L62,225.5z"></path>	<path class="st2" d="M58.8,228.7h-0.5H58.8c0,0,0.1,0,0.2-0.1l0,0C58.9,228.7,58.8,228.7,58.8,228.7z"></path>	<polygon class="st2" points="62,225.5 62,225.5 62,225.5  "></polygon>	<path class="st2" d="M62,225.5L62,225.5L62,225.5z"></path>	<path class="st2" d="M58.4,221.5L58.4,221.5C58.5,221.5,58.5,221.5,58.4,221.5C58.5,221.5,58.5,221.5,58.4,221.5L58.4,221.5  L58.4,221.5L58.4,221.5z"></path>	<polygon class="st2" points="59,228.6 58.9,228.6 58.9,228.6 58.9,228.6 58.9,228.6 58.9,228.6  "></polygon>	<path class="st2" d="M61.3,223.9C61.3,223.9,61.3,224,61.3,223.9C61.3,224,61.3,223.9,61.3,223.9C61.3,224,61.3,224,61.3,223.9  C61.3,224,61.3,223.9,61.3,223.9L61.3,223.9L61.3,223.9L61.3,223.9z"></path>	<polygon class="st2" points="58.4,221.5 58.5,221.5 58.4,221.5  "></polygon>	<polygon class="st2" points="61.3,224 61.3,224 61.3,224 61.3,223.9  "></polygon>	<polygon class="st2" points="62,225.5 62,225.5 62,225.5 62,225.5  "></polygon>	<path class="st2" d="M60.6,223.3c0.2,0.2,0.5,0.4,0.7,0.6c-0.2-0.3-0.4-0.5-0.7-0.8c-0.6-0.6-1.4-1.2-2.2-1.6  C59.3,222.2,60,222.8,60.6,223.3z"></path>	<path class="st2" d="M61.3,223.9c-0.2-0.2-0.4-0.4-0.7-0.6c-0.6-0.5-1.4-1.1-2.2-1.7l0,0c0.8,0.7,1.5,1.3,2.2,1.8  C60.9,223.5,61.1,223.7,61.3,223.9L61.3,223.9L61.3,223.9z"></path>	<path class="st2" d="M61.3,223.9L61.3,223.9c-0.2-0.3-0.4-0.5-0.7-0.8C60.9,223.4,61.1,223.6,61.3,223.9z"></path>	<path class="st2" d="M61.3,223.9L61.3,223.9L61.3,223.9L61.3,223.9L61.3,223.9L61.3,223.9z"></path>	<path class="st2" d="M47.9,228.7c0.1,0,0.3,0,0.4,0h9.4c0.1,0,0.2,0,0.3,0H47.9z"></path>	<path class="st2" d="M59.7,228.2c-0.3,0.2-0.6,0.3-0.8,0.4c0.3,0,0.6-0.1,0.9-0.2c0.3-0.1,0.5-0.2,0.8-0.3c0.8-0.4,1.3-1.2,1.3-2.4  c0-0.1,0-0.1,0-0.2C61.9,226.7,60.6,227.7,59.7,228.2z"></path>	<path class="st2" d="M59.7,228.2c-0.3,0.2-0.6,0.3-0.8,0.4l0,0C59.1,228.6,59.4,228.4,59.7,228.2z"></path>	<path class="st2" d="M60.7,228.1c0.8-0.4,1.3-1.2,1.3-2.4c0-0.1,0-0.1,0-0.2l0,0c0,0.1,0,0.1,0,0.2C62,226.9,61.5,227.7,60.7,228.1  z"></path>	<path class="st2" d="M58.9,228.6c0.3,0,0.7-0.1,0.9-0.2C59.6,228.5,59.3,228.6,58.9,228.6C59,228.6,59,228.6,58.9,228.6z"></path>	<polygon class="st2" points="59,228.6 58.9,228.6 58.9,228.6  "></polygon>	<path class="st3" d="M144.9,242.7c0,0,0.1,0.1,0.1,0.2C145,242.9,145,242.8,144.9,242.7z"></path>	<path class="st3" d="M149,252.6c0.3,1,0.6,2,0.8,3.1C149.6,254.8,149.4,253.7,149,252.6z"></path></g><g>	<path class="st4" d="M155.7,185.3c0,11.9,9.7,21.6,21.6,21.6s21.6-9.7,21.6-21.6  c0-11.9-9.7-21.6-21.6-21.6l0,0C165.4,163.6,155.7,173.3,155.7,185.3L155.7,185.3z M181.1,185.3l-8.5-8.4c-0.8-0.8-0.7-2.1,0.1-2.8  c0.8-0.7,2-0.7,2.8,0l9.9,10c0.8,0.8,0.8,2,0.1,2.8l-9.8,9.8c-0.8,0.8-2.1,0.8-2.8,0c-0.8-0.8-0.8-2,0-2.8l0,0L181.1,185.3z"></path>	<g class="st5">		<path class="st2" d="M73.9,135.7c-2,1-4.7,1.5-8,1.5c-4.3,0-7.7-1.3-10.1-3.8s-3.7-5.9-3.7-10.1c0-4.5,1.4-8.1,4.2-10.9   c2.8-2.8,6.4-4.2,10.8-4.2c2.7,0,5,0.3,6.9,1v6.1c-1.9-1.1-4-1.7-6.4-1.7c-2.6,0-4.8,0.8-6.4,2.5c-1.6,1.7-2.4,3.9-2.4,6.7   c0,2.7,0.8,4.9,2.3,6.5s3.6,2.4,6.2,2.4c2.5,0,4.7-0.6,6.8-1.8v5.8H73.9z"></path>		<path class="st2" d="M94.9,136.6h-5.8v-2.8H89c-1.3,2.2-3.3,3.4-6,3.4c-1.9,0-3.5-0.5-4.6-1.7s-1.7-2.6-1.7-4.4   c0-3.9,2.3-6.1,6.9-6.7l5.4-0.7c0-2.2-1.2-3.3-3.6-3.3s-4.6,0.7-6.8,2.1v-4.7c0.9-0.4,2-0.8,3.5-1.2c1.5-0.3,2.8-0.5,4.1-0.5   c5.7,0,8.6,2.8,8.6,8.5L94.9,136.6L94.9,136.6z M89.1,128.5v-1.3l-3.6,0.5c-2,0.3-3,1.2-3,2.7c0,0.7,0.2,1.3,0.7,1.7   s1.1,0.7,2,0.7c1.2,0,2.1-0.4,2.8-1.2C88.7,130.8,89.1,129.7,89.1,128.5z"></path>		<path class="st2" d="M112.8,122.2c-0.7-0.4-1.6-0.6-2.6-0.6c-1.3,0-2.4,0.5-3.1,1.5c-0.8,1-1.1,2.3-1.1,4v9.6h-6.2v-20h6.2v3.7   h0.1c1-2.7,2.7-4.1,5.3-4.1c0.7,0,1.2,0.1,1.5,0.2v5.7H112.8z"></path>		<path class="st2" d="M129.8,113.5c-1,0-1.9-0.3-2.6-0.9s-1-1.4-1-2.3c0-0.9,0.3-1.7,1-2.3s1.5-0.9,2.6-0.9s1.9,0.3,2.6,0.9   c0.7,0.6,1,1.3,1,2.3c0,0.9-0.3,1.7-1,2.3C131.7,113.2,130.9,113.5,129.8,113.5z M132.9,136.6h-6.2v-20h6.2V136.6z"></path>		<path class="st2" d="M157.4,136.6h-6.2v-11.1c0-3.1-1.1-4.6-3.3-4.6c-1.1,0-1.9,0.4-2.6,1.2s-1,1.9-1,3.1v11.4h-6.2v-20h6.2v3.2   h0.1c1.5-2.4,3.6-3.7,6.4-3.7c4.4,0,6.6,2.7,6.6,8.2V136.6z"></path>		<path class="st2" d="M161,136.1v-5c1,0.6,2,1.1,3,1.4c1,0.3,2,0.4,2.9,0.4c1.1,0,2-0.1,2.6-0.4c0.6-0.3,0.9-0.8,0.9-1.4   c0-0.4-0.1-0.7-0.4-1s-0.7-0.5-1.1-0.7s-0.9-0.4-1.5-0.5c-0.5-0.2-1-0.3-1.5-0.5c-0.8-0.3-1.5-0.6-2.1-1s-1.1-0.7-1.5-1.2   s-0.7-1-0.9-1.6s-0.3-1.3-0.3-2.1c0-1.1,0.2-2.1,0.7-2.9s1.1-1.5,2-2c0.8-0.5,1.7-0.9,2.8-1.1c1-0.2,2.1-0.4,3.3-0.4   c0.9,0,1.8,0.1,2.7,0.2c0.9,0.1,1.8,0.3,2.7,0.6v4.8c-0.8-0.5-1.6-0.8-2.5-1s-1.8-0.3-2.6-0.3c-0.4,0-0.8,0-1.1,0.1   c-0.4,0.1-0.7,0.2-0.9,0.3s-0.5,0.3-0.6,0.5s-0.2,0.5-0.2,0.7c0,0.4,0.1,0.7,0.4,0.9s0.5,0.5,0.9,0.7s0.8,0.4,1.3,0.5   s0.9,0.3,1.4,0.5c0.8,0.3,1.6,0.6,2.2,0.9s1.2,0.7,1.7,1.2s0.8,1,1.1,1.6s0.4,1.3,0.4,2.2c0,1.2-0.3,2.2-0.8,3s-1.2,1.5-2.1,2.1   c-0.9,0.5-1.8,0.9-2.9,1.2s-2.3,0.4-3.5,0.4C164.9,137.1,162.8,136.8,161,136.1z"></path>		<path class="st2" d="M198.9,136.6h-6.2v-3h-0.1c-1.5,2.4-3.6,3.5-6.1,3.5c-4.6,0-7-2.8-7-8.4v-12.1h6.2v11.5   c0,2.8,1.1,4.2,3.4,4.2c1.1,0,2-0.4,2.7-1.2s1-1.8,1-3.2v-11.4h6.2L198.9,136.6L198.9,136.6z"></path>		<path class="st2" d="M217.1,122.2c-0.7-0.4-1.6-0.6-2.6-0.6c-1.3,0-2.4,0.5-3.1,1.5c-0.8,1-1.1,2.3-1.1,4v9.6h-6.2v-20h6.2v3.7   h0.1c1-2.7,2.7-4.1,5.3-4.1c0.7,0,1.2,0.1,1.5,0.2v5.7H217.1z"></path>		<path class="st2" d="M236.6,136.6h-5.8v-2.8h-0.1c-1.3,2.2-3.3,3.4-6,3.4c-1.9,0-3.5-0.5-4.6-1.7s-1.7-2.6-1.7-4.4   c0-3.9,2.3-6.1,6.9-6.7l5.4-0.7c0-2.2-1.2-3.3-3.6-3.3s-4.6,0.7-6.8,2.1v-4.7c0.9-0.4,2-0.8,3.5-1.2c1.5-0.3,2.8-0.5,4.1-0.5   c5.7,0,8.6,2.8,8.6,8.5L236.6,136.6L236.6,136.6z M230.8,128.5v-1.3l-3.6,0.5c-2,0.3-3,1.2-3,2.7c0,0.7,0.2,1.3,0.7,1.7   s1.1,0.7,2,0.7c1.2,0,2.1-0.4,2.8-1.2C230.5,130.8,230.8,129.7,230.8,128.5z"></path>		<path class="st2" d="M260.8,136.6h-6.2v-11.1c0-3.1-1.1-4.6-3.3-4.6c-1.1,0-1.9,0.4-2.6,1.2s-1,1.9-1,3.1v11.4h-6.2v-20h6.2v3.2   h0.1c1.5-2.4,3.6-3.7,6.4-3.7c4.4,0,6.6,2.7,6.6,8.2V136.6z"></path>		<path class="st2" d="M280.9,135.9c-1.4,0.8-3.4,1.2-6,1.2c-3.1,0-5.6-0.9-7.5-2.8c-1.9-1.9-2.9-4.3-2.9-7.2c0-3.4,1-6.1,3.1-8   c2-2,4.8-2.9,8.2-2.9c2.4,0,4.1,0.3,5.1,0.9v5.2c-1.3-1-2.7-1.4-4.3-1.4c-1.8,0-3.2,0.5-4.2,1.6s-1.6,2.5-1.6,4.3s0.5,3.2,1.5,4.2   s2.3,1.5,4.1,1.5c1.5,0,3-0.5,4.5-1.4L280.9,135.9L280.9,135.9z"></path>		<path class="st2" d="M302.9,128.4h-13c0.2,2.9,2,4.4,5.5,4.4c2.2,0,4.1-0.5,5.8-1.6v4.5c-1.8,1-4.3,1.5-7.2,1.5   c-3.2,0-5.7-0.9-7.5-2.7s-2.7-4.3-2.7-7.5c0-3.3,1-6,2.9-7.9s4.3-2.9,7.1-2.9c2.9,0,5.2,0.9,6.8,2.6c1.6,1.7,2.4,4.1,2.4,7.1v2.5   H302.9z M297.1,124.6c0-2.9-1.2-4.3-3.5-4.3c-1,0-1.8,0.4-2.6,1.2s-1.2,1.8-1.3,3.1H297.1z"></path>	</g></g></svg>